<svg viewBox="0 0 302 112" fill="none" xmlns="http://www.w3.org/2000/svg">
<g opacity="0.119">
<path d="M54.132 67.026C54.132 47.95 54.459 27.385 54.77 16.251H54.614C52.167 32.751 44.941 74.534 39.456 105.184C39.1862 106.672 38.399 108.017 37.2336 108.98C36.0682 109.944 34.5996 110.464 33.0875 110.45C31.5754 110.435 30.117 109.887 28.9703 108.901C27.8236 107.915 27.0623 106.556 26.821 105.063C22.431 77.556 15.094 33.568 12.749 16.186H12.437C12.749 28.252 13.3 51.862 13.3 69.692V105.307C13.3 106.673 12.7574 107.983 11.7916 108.949C10.8258 109.914 9.51586 110.457 8.15 110.457C6.78414 110.457 5.47421 109.914 4.5084 108.949C3.54259 107.983 3 106.673 3 105.307V12.581C3 11.7672 3.16034 10.9615 3.47187 10.2097C3.7834 9.45795 4.24 8.77495 4.81559 8.19973C5.39118 7.62451 6.07448 7.16835 6.82643 6.85731C7.57838 6.54626 8.38426 6.38644 9.198 6.38696H14.265C15.7123 6.38581 17.1142 6.89192 18.227 7.81728C19.3398 8.74265 20.0932 10.0287 20.356 11.452C25.856 41.212 32.029 76.012 33.356 88.552H33.514C35.048 76.31 42.225 39.772 47.814 11.379C48.092 9.97203 48.8501 8.70538 49.9588 7.7957C51.0675 6.88601 52.4579 6.38981 53.892 6.39196H58.676C60.3188 6.39196 61.8942 7.04455 63.0558 8.20615C64.2174 9.36775 64.87 10.9432 64.87 12.586V105.311C64.87 106.676 64.3277 107.985 63.3625 108.95C62.3972 109.916 61.0881 110.458 59.723 110.458H59.282C57.9169 110.458 56.6078 109.916 55.6425 108.95C54.6773 107.985 54.135 106.676 54.135 105.311L54.132 67.026Z" fill="black"/>
<path d="M130.271 47.3689L138.46 60.5689L146.649 47.3689" stroke="black" stroke-width="7" stroke-linecap="round" stroke-linejoin="round"/>
<path d="M90.39 65.1128L82.196 51.9178L74.007 65.1128" stroke="black" stroke-width="7" stroke-linecap="round" stroke-linejoin="round"/>
<path d="M82.114 37.6949V16.7199C82.114 11.5969 84.691 7.44495 87.871 7.44495H132.701C135.881 7.44495 138.458 11.5969 138.458 16.7199V58.4019" stroke="black" stroke-width="8" stroke-linecap="round" stroke-linejoin="round"/>
<path d="M138.542 74.7919V95.7639C138.542 100.887 135.965 105.039 132.785 105.039H87.955C84.775 105.039 82.198 100.887 82.198 95.7639V54.0769" stroke="black" stroke-width="8" stroke-linecap="round" stroke-linejoin="round"/>
<path d="M195.209 80.6C196.144 80.6 197.042 80.9716 197.703 81.633C198.364 82.2945 198.736 83.1916 198.736 84.127C198.736 97.355 196.356 111.843 177.536 111.843C159.522 111.843 156.436 99.069 156.436 83.788V30.846C156.433 14.191 163.586 5 177.675 5C195.14 5 198.268 17.406 198.268 31.03C198.268 32.1081 197.84 33.1421 197.077 33.9044C196.315 34.6667 195.281 35.095 194.203 35.095H191.09C190.012 35.095 188.978 34.6667 188.216 33.9044C187.453 33.1421 187.025 32.1081 187.025 31.03V25.05C187.042 23.7601 186.804 22.4796 186.326 21.2817C185.847 20.0838 185.137 18.992 184.236 18.0688C183.335 17.1456 182.261 16.4091 181.075 15.9014C179.889 15.3937 178.615 15.1247 177.325 15.11C169.672 15.21 167.734 21.356 167.734 30.463V84.495C167.734 94.934 170.014 101.804 177.834 101.804C185.95 101.804 187.421 94.764 187.421 84.965V84.128C187.421 83.1926 187.793 82.2955 188.454 81.634C189.115 80.9726 190.013 80.601 190.948 80.601L195.209 80.6Z" fill="black"/>
<path d="M214.831 6.38696H214.924C216.361 6.38723 217.74 6.95835 218.756 7.97474C219.773 8.99113 220.344 10.3696 220.344 11.807V56.58H220.5C224.529 47.48 234.572 25.065 241.364 9.61296C241.658 8.96044 242.079 8.37269 242.602 7.88365C243.124 7.39461 243.739 7.01398 244.409 6.76375C245.08 6.51351 245.794 6.39862 246.509 6.42572C247.224 6.45282 247.927 6.62137 248.577 6.92163C249.227 7.22189 249.811 7.64792 250.295 8.1751C250.779 8.70229 251.154 9.32018 251.398 9.9931C251.642 10.666 251.751 11.3806 251.717 12.0957C251.683 12.8107 251.508 13.5119 251.202 14.159L235.058 47.686L254.245 103.266C254.527 104.082 254.61 104.954 254.486 105.809C254.363 106.664 254.037 107.477 253.536 108.181C253.034 108.884 252.372 109.458 251.605 109.853C250.837 110.249 249.986 110.456 249.122 110.456H248.598C247.46 110.456 246.351 110.098 245.428 109.432C244.505 108.767 243.815 107.828 243.455 106.748L227.655 59.283L220.344 73.826V105.036C220.344 106.473 219.773 107.852 218.756 108.868C217.74 109.885 216.361 110.456 214.924 110.456H214.831C213.394 110.456 212.015 109.885 210.999 108.868C209.982 107.852 209.411 106.473 209.411 105.036V11.807C209.411 10.3696 209.982 8.99113 210.999 7.97474C212.015 6.95835 213.394 6.38723 214.831 6.38696" fill="black"/>
<path d="M278.222 110.454C276.754 110.454 275.347 109.871 274.309 108.833C273.271 107.795 272.688 106.388 272.688 104.92V71.605C272.696 70.6529 272.543 69.7063 272.236 68.805L255.295 13.544C255.041 12.7163 254.985 11.8406 255.132 10.9873C255.278 10.134 255.622 9.32684 256.137 8.63067C256.651 7.93449 257.322 7.36869 258.095 6.97869C258.868 6.58869 259.721 6.38537 260.587 6.38504H261.061C262.274 6.38529 263.453 6.78364 264.417 7.51891C265.381 8.25418 266.078 9.2857 266.399 10.455C271.315 28.337 276.799 48.337 278.409 57.204H278.565C280.426 47.911 285.986 27.704 290.588 10.488C290.778 9.77709 291.107 9.11107 291.557 8.52891C292.007 7.94675 292.568 7.46015 293.209 7.09756C293.849 6.73497 294.555 6.50366 295.286 6.41716C296.016 6.33067 296.757 6.39072 297.464 6.59381C298.171 6.7969 298.831 7.13895 299.404 7.59996C299.978 8.06097 300.453 8.63168 300.804 9.27873C301.154 9.92578 301.372 10.6362 301.444 11.3684C301.517 12.1006 301.443 12.8399 301.226 13.543L284.073 69.508C283.843 70.5249 283.739 71.5659 283.761 72.608V104.92C283.761 106.388 283.178 107.795 282.14 108.833C281.102 109.871 279.695 110.454 278.227 110.454H278.222Z" fill="black"/>
</g>
<path d="M51.132 64.026C51.132 44.95 51.459 24.385 51.77 13.251H51.614C49.167 29.751 41.941 71.534 36.456 102.184C36.1862 103.672 35.399 105.017 34.2336 105.98C33.0682 106.944 31.5996 107.464 30.0875 107.45C28.5754 107.435 27.117 106.887 25.9703 105.901C24.8236 104.915 24.0623 103.556 23.821 102.063C19.431 74.556 12.094 30.568 9.749 13.186H9.437C9.749 25.252 10.3 48.862 10.3 66.692V102.307C10.3 103.673 9.75741 104.983 8.7916 105.949C7.82579 106.914 6.51586 107.457 5.15 107.457C3.78414 107.457 2.47421 106.914 1.5084 105.949C0.542588 104.983 0 103.673 0 102.307V9.58096C-1.69682e-07 8.76722 0.160345 7.96145 0.471873 7.2097C0.7834 6.45795 1.24 5.77495 1.81559 5.19973C2.39118 4.62451 3.07448 4.16835 3.82643 3.85731C4.57838 3.54626 5.38426 3.38644 6.198 3.38696H11.265C12.7123 3.38581 14.1142 3.89192 15.227 4.81728C16.3398 5.74265 17.0932 7.02874 17.356 8.45196C22.856 38.212 29.029 73.012 30.356 85.552H30.514C32.048 73.31 39.225 36.772 44.814 8.37896C45.092 6.97203 45.8501 5.70538 46.9588 4.7957C48.0675 3.88601 49.4579 3.38981 50.892 3.39196H55.676C57.3188 3.39196 58.8942 4.04455 60.0558 5.20615C61.2174 6.36775 61.87 7.94321 61.87 9.58596V102.311C61.87 103.676 61.3277 104.985 60.3625 105.95C59.3972 106.916 58.0881 107.458 56.723 107.458H56.282C54.9169 107.458 53.6078 106.916 52.6425 105.95C51.6773 104.985 51.135 103.676 51.135 102.311L51.132 64.026Z" fill="#707EBC"/>
<path d="M127.271 44.3689L135.46 57.5689L143.649 44.3689" stroke="#D6BE97" stroke-width="7" stroke-linecap="round" stroke-linejoin="round"/>
<path d="M87.39 62.1128L79.196 48.9178L71.007 62.1128" stroke="#D6BE97" stroke-width="7" stroke-linecap="round" stroke-linejoin="round"/>
<path d="M79.114 34.6949V13.7199C79.114 8.59695 81.691 4.44495 84.871 4.44495H129.701C132.881 4.44495 135.458 8.59695 135.458 13.7199V55.4019" stroke="#D6BE97" stroke-width="8" stroke-linecap="round" stroke-linejoin="round"/>
<path d="M135.542 71.7919V92.7639C135.542 97.8869 132.965 102.039 129.785 102.039H84.955C81.775 102.039 79.198 97.8869 79.198 92.7639V51.0769" stroke="#D6BE97" stroke-width="8" stroke-linecap="round" stroke-linejoin="round"/>
<path d="M192.209 77.6C193.144 77.6 194.042 77.9716 194.703 78.633C195.364 79.2945 195.736 80.1916 195.736 81.127C195.736 94.355 193.356 108.843 174.536 108.843C156.522 108.843 153.436 96.069 153.436 80.788V27.846C153.433 11.191 160.586 2 174.675 2C192.14 2 195.268 14.406 195.268 28.03C195.268 29.1081 194.84 30.1421 194.077 30.9044C193.315 31.6667 192.281 32.095 191.203 32.095H188.09C187.012 32.095 185.978 31.6667 185.216 30.9044C184.453 30.1421 184.025 29.1081 184.025 28.03V22.05C184.042 20.7601 183.804 19.4796 183.326 18.2817C182.847 17.0838 182.137 15.992 181.236 15.0688C180.335 14.1456 179.261 13.4091 178.075 12.9014C176.889 12.3937 175.615 12.1247 174.325 12.11C166.672 12.21 164.734 18.356 164.734 27.463V81.495C164.734 91.934 167.014 98.804 174.834 98.804C182.95 98.804 184.421 91.764 184.421 81.965V81.128C184.421 80.1926 184.793 79.2955 185.454 78.634C186.115 77.9726 187.013 77.601 187.948 77.601L192.209 77.6Z" fill="#707EBC"/>
<path d="M211.831 3.38696H211.924C213.361 3.38723 214.74 3.95835 215.756 4.97474C216.773 5.99113 217.344 7.36957 217.344 8.80696V53.58H217.5C221.529 44.48 231.572 22.065 238.364 6.61296C238.658 5.96044 239.079 5.37269 239.602 4.88365C240.124 4.39461 240.739 4.01398 241.409 3.76375C242.08 3.51351 242.794 3.39862 243.509 3.42572C244.224 3.45282 244.927 3.62137 245.577 3.92163C246.227 4.22189 246.811 4.64792 247.295 5.1751C247.779 5.70229 248.154 6.32018 248.398 6.9931C248.642 7.66602 248.751 8.38063 248.717 9.09565C248.683 9.81068 248.508 10.5119 248.202 11.159L232.058 44.686L251.245 100.266C251.527 101.082 251.61 101.954 251.486 102.809C251.363 103.664 251.037 104.477 250.536 105.181C250.034 105.884 249.372 106.458 248.605 106.853C247.837 107.249 246.986 107.456 246.122 107.456H245.598C244.46 107.456 243.351 107.098 242.428 106.432C241.505 105.767 240.815 104.828 240.455 103.748L224.655 56.283L217.344 70.826V102.036C217.344 103.473 216.773 104.852 215.756 105.868C214.74 106.885 213.361 107.456 211.924 107.456H211.831C210.394 107.456 209.015 106.885 207.999 105.868C206.982 104.852 206.411 103.473 206.411 102.036V8.80696C206.411 7.36957 206.982 5.99113 207.999 4.97474C209.015 3.95835 210.394 3.38723 211.831 3.38696" fill="#707EBC"/>
<path d="M275.222 107.454C273.754 107.454 272.347 106.871 271.309 105.833C270.271 104.795 269.688 103.388 269.688 101.92V68.605C269.696 67.6529 269.543 66.7063 269.236 65.805L252.295 10.544C252.041 9.71629 251.985 8.8406 252.132 7.98729C252.278 7.13399 252.622 6.32684 253.137 5.63067C253.651 4.93449 254.322 4.36869 255.095 3.97869C255.868 3.58869 256.721 3.38537 257.587 3.38504H258.061C259.274 3.38529 260.453 3.78364 261.417 4.51891C262.381 5.25418 263.078 6.2857 263.399 7.45504C268.315 25.337 273.799 45.337 275.409 54.204H275.565C277.426 44.911 282.986 24.704 287.588 7.48804C287.778 6.77709 288.107 6.11107 288.557 5.52891C289.007 4.94675 289.568 4.46015 290.209 4.09756C290.849 3.73497 291.555 3.50366 292.286 3.41716C293.016 3.33067 293.757 3.39072 294.464 3.59381C295.171 3.7969 295.831 4.13895 296.404 4.59996C296.978 5.06097 297.453 5.63168 297.804 6.27873C298.154 6.92578 298.372 7.63617 298.444 8.36836C298.517 9.10056 298.443 9.83986 298.226 10.543L281.073 66.508C280.843 67.5249 280.739 68.5659 280.761 69.608V101.92C280.761 103.388 280.178 104.795 279.14 105.833C278.102 106.871 276.695 107.454 275.227 107.454H275.222Z" fill="#707EBC"/>
</svg>
